<svg xmlns="http://www.w3.org/2000/svg" width="240.464" height="39.688" viewBox="0 0 240.464 39.688">
    <defs>
        <style>
            .cls-1{fill:#fff;stroke:rgba(0,0,0,0);stroke-miterlimit:10}
        </style>
    </defs>
    <g id="alla_logo" transform="translate(-359.036 -22.02)">
        <path id="합치기_1" d="M35.145 37.235l-.837-3.1v-.017L29.5 16.364 28 17.869l4.246 15.7v.016l.837 3.1-2.963-.794-.837-3.1v-.017l-6.489-24.01-.808-2.989v-.012l2.161-2.168 1.5-1.505L27.727 0v.012L28.539 3l8.62 31.885.005.017L38 38zM24.956 6.6l2.3 8.517 1.5-1.5-2.3-8.518zm-1.085 27.647l-2.855-.765-1.786-6.453-2.921-10.808-1.03-3.732v-.012l2.115-2.122v.012l1.03 3.732 4.606 17.035 5.011 1.342v.017l.838 3.1zm-4.026-1l-2.2-.589-2.9-.777-.838-3.1v-.016l-2.444-9.04-.722-2.676v-.012l2.115-2.121v.012l.722 2.676 3.228 11.939 2.2.589.886 3.125zm-9.68-2.7L3 28.622l-3-.8 2.271-2.279 5.146-5.163 2.114-2.122v.012l.808 2.989 1.879 6.95v.017l.838 3.1zm-4.893-4.2l4.051 1.086-1.094-4.056z" class="cls-1" data-name="합치기 1" transform="translate(360 23)"/>
        <path id="합치기_2" d="M83.785 16.527a6.251 6.251 0 0 1-2.328-3.935 13.518 13.518 0 0 1-.219-1.584 43.042 43.042 0 0 1-.117-1.925 18.9 18.9 0 0 1 .231-3.715 5.848 5.848 0 0 1 2.475-3.975A7.694 7.694 0 0 1 88.3 0a7.59 7.59 0 0 1 4.948 1.654 5.465 5.465 0 0 1 2.267 4.036H90.9a3.406 3.406 0 0 0-.979-1.878 2.262 2.262 0 0 0-1.56-.665 2.346 2.346 0 0 0-1.616.766 3.724 3.724 0 0 0-.945 2.423q-.059.523-.094 1.2T85.7 9.06c.013.566.033 1.059.064 1.483s.061.79.1 1.1a4.989 4.989 0 0 0 .8 2.309 1.92 1.92 0 0 0 1.639.9 2.47 2.47 0 0 0 1.97-.8 3.533 3.533 0 0 0 .692-2.372v-.707H87.69V8.03h7.844v2.7q0 3.834-1.813 5.551T88.254 18a6.951 6.951 0 0 1-4.469-1.473zm58.163 1.073a2.947 2.947 0 0 1-.871-.546l-.1.689h-4.72l.1-.536c.039-.208.085-.449.126-.718a6.651 6.651 0 0 0 .147-1.169V.26h4.57v5.409a2.961 2.961 0 0 1 .9-.6 3.64 3.64 0 0 1 1.6-.309q3.085 0 4.114 1.9a9.65 9.65 0 0 1 1.026 4.64 13.642 13.642 0 0 1-.27 2.875 5.28 5.28 0 0 1-.884 2.057 3.775 3.775 0 0 1-1.592 1.232 6.173 6.173 0 0 1-2.394.412 4.366 4.366 0 0 1-1.752-.276zm-.324-9.042a6.54 6.54 0 0 0-.42 2.747 6.666 6.666 0 0 0 .42 2.775 1.166 1.166 0 0 0 2.235.009 6.8 6.8 0 0 0 .408-2.784 6.531 6.531 0 0 0-.418-2.7 1.154 1.154 0 0 0-2.225-.042zM12.085 17.74l-1.071-3.15H5.832l-1.09 3.15H0L6.5.26h3.817l6.529 17.48zM8.4 6.879c-.05.2-.086.36-.113.465l-1.426 4.278h3.229L8.726 7.344c-.027-.1-.059-.26-.093-.465a2.17 2.17 0 0 0-.116-.444c-.028.096-.067.243-.117.444zm170.712 10.858l-2.705-2.42V.26H181v17.477zm-61.373-1.584q-1.5-1.585-1.5-4.993 0-3.372 1.634-4.955a7.275 7.275 0 0 1 9.064 0q1.634 1.583 1.634 4.955a11 11 0 0 1-.345 2.935 4.9 4.9 0 0 1-1.092 2.05 4.5 4.5 0 0 1-1.918 1.2 8.918 8.918 0 0 1-2.811.393 6.165 6.165 0 0 1-4.666-1.585zm3.5-7.74a6.111 6.111 0 0 0-.451 2.747 6.65 6.65 0 0 0 .429 2.664c.287.632.684.947 1.187.947a1.307 1.307 0 0 0 1.205-.947 6.939 6.939 0 0 0 .408-2.664 5.779 5.779 0 0 0-.482-2.747 1.354 1.354 0 0 0-1.131-.825 1.326 1.326 0 0 0-1.161.825zm-14.8 9.324l-2.707-2.42V.26h4.6v17.477zm-67.108 0l-2.708-2.42V.26h4.6v17.477zm-12.924 0l-2.705-2.42V.26h4.6v17.477zm130.8-1.17a3.8 3.8 0 0 1-1.22-2.886 3.625 3.625 0 0 1 1.239-2.743 5.658 5.658 0 0 1 3.863-1.193l2.39-.041v-.341a2.318 2.318 0 0 0-.388-1.423 1.214 1.214 0 0 0-1.018-.515 1.642 1.642 0 0 0-.923.293 1.617 1.617 0 0 0-.609 1.058H156.2a3.609 3.609 0 0 1 1.8-3.025 7.807 7.807 0 0 1 8.413.2 4.026 4.026 0 0 1 1.616 3.208v6.134a13.21 13.21 0 0 0 .228 2.3h-4.53a.644.644 0 0 0-.108-.242h-.018v-.039l-.756.2a6.266 6.266 0 0 1-1.8.2 5.441 5.441 0 0 1-3.834-1.145zm4.384-4.46a1.053 1.053 0 0 0-.787.415 1.578 1.578 0 0 0-.369 1.08 1.386 1.386 0 0 0 .381 1.049 1.164 1.164 0 0 0 .82.361A1.787 1.787 0 0 0 163 14.5a2.388 2.388 0 0 0 .482-1.665v-.748zm-111.602 4.46a3.805 3.805 0 0 1-1.216-2.886 3.616 3.616 0 0 1 1.239-2.743 5.644 5.644 0 0 1 3.859-1.193l2.395-.045v-.337a2.326 2.326 0 0 0-.388-1.423 1.222 1.222 0 0 0-1.02-.515 1.645 1.645 0 0 0-.921.293 1.618 1.618 0 0 0-.61 1.058h-4.344a3.611 3.611 0 0 1 1.8-3.025 7.8 7.8 0 0 1 8.412.2 4.026 4.026 0 0 1 1.616 3.208v6.134a13.232 13.232 0 0 0 .231 2.3h-4.527a.68.68 0 0 0-.106-.242h-.018v-.039l-.757.2a6.278 6.278 0 0 1-1.8.2 5.448 5.448 0 0 1-3.845-1.145zm4.387-4.46a1.049 1.049 0 0 0-.786.415 1.566 1.566 0 0 0-.369 1.08 1.39 1.39 0 0 0 .378 1.049 1.167 1.167 0 0 0 .82.361 1.783 1.783 0 0 0 1.362-.513 2.382 2.382 0 0 0 .485-1.665v-.748z" class="cls-1" data-name="합치기 2" transform="translate(418 32)"/>
    </g>
</svg>
