<svg xmlns="http://www.w3.org/2000/svg" width="140" height="38" viewBox="0 0 140 38">
    <defs>
        <style>
            .cls-1,.cls-3,.cls-5{fill:#fff}.cls-1{fill-rule:evenodd}.cls-2{fill:none;stroke-miterlimit:10}.cls-4,.cls-5{stroke:none}
        </style>
    </defs>
    <g id="btn_apple">
        <g id="그룹_4" data-name="그룹 4" transform="translate(25.397 7.414)">
            <path id="패스_6" d="M1244.008 689.4v-.843c.005-.027.012-.053.014-.08.02-.219.032-.439.058-.657a6.652 6.652 0 0 1 .864-2.607 5.507 5.507 0 0 1 3.2-2.554 4.613 4.613 0 0 1 1.755-.21 5.185 5.185 0 0 1 1.214.271q.794.263 1.583.546a1.647 1.647 0 0 0 1.18.011c.5-.189 1.007-.354 1.513-.525a6.629 6.629 0 0 1 1.688-.363 5.522 5.522 0 0 1 1.572.153 5 5 0 0 1 2.713 1.52c.142.156.271.327.407.491-.154.1-.293.192-.427.288a4.592 4.592 0 0 0-1.874 5.009 4.778 4.778 0 0 0 2.882 3.33v.037c-.014.026-.028.052-.039.078-.161.4-.31.809-.487 1.2a12.9 12.9 0 0 1-1.687 2.687 6.354 6.354 0 0 1-1.161 1.192 2.686 2.686 0 0 1-2.171.547 6.87 6.87 0 0 1-1.3-.4 5.38 5.38 0 0 0-1.576-.393 4.766 4.766 0 0 0-1.926.282c-.421.144-.837.307-1.262.441a2.708 2.708 0 0 1-1.112.13 2.556 2.556 0 0 1-1.218-.491 6.668 6.668 0 0 1-1.233-1.2 13.67 13.67 0 0 1-2.576-4.692 12.452 12.452 0 0 1-.564-2.832c-.007-.117-.019-.241-.03-.366z" class="cls-1" data-name="패스 6" transform="translate(-1244.008 -677.219)"/>
            <path id="패스_7" d="M1262.052 674.8c0 .244.016.489 0 .732a4.142 4.142 0 0 1-.532 1.812 5.539 5.539 0 0 1-2.066 2.146 3.34 3.34 0 0 1-1.83.467c-.087 0-.124-.018-.132-.118a4.073 4.073 0 0 1 .409-2.1 5.072 5.072 0 0 1 3.544-2.857c.156-.039.317-.056.477-.084z" class="cls-1" data-name="패스 7" transform="translate(-1248.312 -674.798)"/>
        </g>
        <g id="패스_8" class="cls-2" data-name="패스 8">
            <path d="M1339.857 681c0 10.494-8.234 19-18.392 19h-103.216c-10.156 0-18.392-8.506-18.392-19s8.236-19 18.392-19h103.215c10.159 0 18.392 8.506 18.392 19z" class="cls-4" transform="translate(-1199.857 -662)"/>
            <path d="M1218.25 664c-4.366 0-8.475 1.76-11.568 4.956-3.112 3.214-4.825 7.491-4.825 12.044 0 4.553 1.713 8.83 4.825 12.044 3.093 3.196 7.202 4.956 11.567 4.956h103.216c4.366 0 8.475-1.76 11.568-4.956 3.111-3.213 4.824-7.49 4.824-12.044 0-4.553-1.713-8.83-4.824-12.044-3.093-3.196-7.202-4.956-11.568-4.956h-103.216m0-2h103.216c10.159 0 18.392 8.506 18.392 19s-8.233 19-18.392 19h-103.216c-10.156 0-18.392-8.506-18.392-19s8.236-19 18.392-19z" class="cls-5" transform="translate(-1199.857 -662)"/>
        </g>
        <path id="패스_12" d="M7.605 0H6.516l-.891-2.355H2.063L1.225 0H.129l3.223-8.4h1.02zM5.3-3.24L3.984-6.82a3.428 3.428 0 0 1-.129-.562h-.023a3.138 3.138 0 0 1-.132.562L2.391-3.24zM9.7-.867h-.026V2.76h-.961V-6h.961v1.055H9.7a2.272 2.272 0 0 1 2.074-1.2 2.2 2.2 0 0 1 1.811.806 3.337 3.337 0 0 1 .65 2.159A3.719 3.719 0 0 1 13.5-.765a2.439 2.439 0 0 1-2 .905A2.007 2.007 0 0 1 9.7-.867zm-.023-2.42v.838a1.784 1.784 0 0 0 .483 1.263 1.605 1.605 0 0 0 1.228.519 1.608 1.608 0 0 0 1.368-.668 3.064 3.064 0 0 0 .5-1.857 2.419 2.419 0 0 0-.463-1.57 1.532 1.532 0 0 0-1.254-.568 1.7 1.7 0 0 0-1.348.583 2.141 2.141 0 0 0-.517 1.46zm7.078 2.42h-.023V2.76h-.961V-6h.961v1.055h.023a2.272 2.272 0 0 1 2.074-1.2 2.2 2.2 0 0 1 1.811.806 3.337 3.337 0 0 1 .65 2.159 3.719 3.719 0 0 1-.732 2.411 2.439 2.439 0 0 1-2 .905 2.007 2.007 0 0 1-1.806-1.003zm-.023-2.42v.838a1.784 1.784 0 0 0 .483 1.263 1.605 1.605 0 0 0 1.228.519 1.608 1.608 0 0 0 1.368-.668 3.064 3.064 0 0 0 .5-1.857 2.419 2.419 0 0 0-.463-1.57 1.532 1.532 0 0 0-1.254-.568 1.7 1.7 0 0 0-1.348.583 2.141 2.141 0 0 0-.517 1.46zM25.846-.34V-1.5a2.253 2.253 0 0 0 .478.316 3.869 3.869 0 0 0 .586.237 4.664 4.664 0 0 0 .618.149 3.447 3.447 0 0 0 .574.053 2.249 2.249 0 0 0 1.356-.337 1.14 1.14 0 0 0 .448-.97 1.139 1.139 0 0 0-.149-.592 1.683 1.683 0 0 0-.413-.46 4.1 4.1 0 0 0-.624-.4q-.36-.19-.776-.4-.439-.223-.82-.451a3.555 3.555 0 0 1-.662-.5 2.1 2.1 0 0 1-.442-.624 1.932 1.932 0 0 1-.161-.817 1.922 1.922 0 0 1 .252-1 2.161 2.161 0 0 1 .662-.7 3 3 0 0 1 .935-.41 4.279 4.279 0 0 1 1.069-.135 4.1 4.1 0 0 1 1.811.3v1.107a3.282 3.282 0 0 0-1.91-.516 3.142 3.142 0 0 0-.645.067 1.821 1.821 0 0 0-.574.22 1.272 1.272 0 0 0-.41.393 1.042 1.042 0 0 0-.158.586 1.206 1.206 0 0 0 .12.557 1.364 1.364 0 0 0 .354.428 3.531 3.531 0 0 0 .571.375q.337.182.776.4t.855.469a3.91 3.91 0 0 1 .709.545 2.422 2.422 0 0 1 .483.662 1.861 1.861 0 0 1 .179.832 2.11 2.11 0 0 1-.243 1.052 2 2 0 0 1-.656.7 2.866 2.866 0 0 1-.952.39 5.215 5.215 0 0 1-1.137.12 4.632 4.632 0 0 1-.492-.032q-.293-.032-.6-.094a4.877 4.877 0 0 1-.577-.152 1.8 1.8 0 0 1-.435-.208zm9.035.281a1.853 1.853 0 0 1-.9.188q-1.576 0-1.576-1.758V-5.18h-1.028V-6h1.031v-1.465l.961-.311V-6h1.512v.82h-1.512v3.38a1.4 1.4 0 0 0 .205.861.818.818 0 0 0 .68.258 1.01 1.01 0 0 0 .627-.2zm3.791.2A2.783 2.783 0 0 1 36.548-.7a3.114 3.114 0 0 1-.794-2.229 3.244 3.244 0 0 1 .826-2.361 2.97 2.97 0 0 1 2.232-.85 2.691 2.691 0 0 1 2.095.826 3.276 3.276 0 0 1 .753 2.291 3.223 3.223 0 0 1-.812 2.3 2.844 2.844 0 0 1-2.176.864zm.07-5.473a1.828 1.828 0 0 0-1.465.63 2.587 2.587 0 0 0-.539 1.737 2.447 2.447 0 0 0 .545 1.682 1.852 1.852 0 0 0 1.459.615 1.757 1.757 0 0 0 1.433-.6 2.619 2.619 0 0 0 .5-1.717 2.664 2.664 0 0 0-.5-1.734 1.749 1.749 0 0 0-1.433-.613zm7.582.3a1.175 1.175 0 0 0-.727-.193 1.226 1.226 0 0 0-1.028.58 2.682 2.682 0 0 0-.413 1.582V0H43.2v-6h.961v1.236h.023a2.1 2.1 0 0 1 .627-.987 1.43 1.43 0 0 1 .943-.354 1.569 1.569 0 0 1 .574.082zm5.865 2.272h-4.236a2.244 2.244 0 0 0 .539 1.547 1.858 1.858 0 0 0 1.418.545 2.948 2.948 0 0 0 1.863-.668v.9a3.482 3.482 0 0 1-2.092.574 2.536 2.536 0 0 1-2-.817 3.346 3.346 0 0 1-.727-2.3 3.281 3.281 0 0 1 .794-2.282 2.546 2.546 0 0 1 1.972-.882 2.256 2.256 0 0 1 1.822.762 3.176 3.176 0 0 1 .645 2.115zm-.984-.814a1.955 1.955 0 0 0-.4-1.295 1.368 1.368 0 0 0-1.1-.463 1.552 1.552 0 0 0-1.154.486 2.207 2.207 0 0 0-.586 1.271z" class="cls-3" data-name="패스 12" transform="translate(57.869 23.031)"/>
    </g>
</svg>
