<svg xmlns="http://www.w3.org/2000/svg" id="apple_btn" width="225" height="60" viewBox="0 0 225 60">
    <defs>
        <style>
            .cls-1,.cls-3,.cls-5{fill:#fff}.cls-1{fill-rule:evenodd}.cls-2{fill:none;stroke-miterlimit:10}.cls-3{font-size:21px;font-family:SegoeUI,Segoe UI}.cls-4,.cls-5{stroke:none}
        </style>
    </defs>
    <g id="그룹_4" data-name="그룹 4" transform="translate(41.151 12.798)">
        <path id="패스_6" d="M1244.008 692.7v-1.239c.008-.04.017-.078.021-.118.029-.322.047-.645.086-.965a9.775 9.775 0 0 1 1.27-3.83 8.092 8.092 0 0 1 4.708-3.753 6.781 6.781 0 0 1 2.578-.309 7.616 7.616 0 0 1 1.783.4q1.167.387 2.326.8a2.419 2.419 0 0 0 1.733.016c.733-.277 1.48-.52 2.223-.771a9.735 9.735 0 0 1 2.48-.534 8.121 8.121 0 0 1 2.31.225 7.344 7.344 0 0 1 3.986 2.233c.209.23.4.48.6.722-.226.153-.43.282-.628.423a7.03 7.03 0 0 0 1.481 12.253v.055c-.02.038-.041.076-.058.115-.237.59-.456 1.189-.715 1.77a18.951 18.951 0 0 1-2.479 3.947 9.339 9.339 0 0 1-1.706 1.751 3.946 3.946 0 0 1-3.19.8 10.094 10.094 0 0 1-1.912-.587 7.917 7.917 0 0 0-2.315-.578 7 7 0 0 0-2.83.415c-.619.212-1.23.451-1.854.648a3.979 3.979 0 0 1-1.633.191 3.756 3.756 0 0 1-1.79-.722 9.8 9.8 0 0 1-1.811-1.76 20.083 20.083 0 0 1-3.785-6.893 18.284 18.284 0 0 1-.829-4.161l-.05-.544z" class="cls-1" data-name="패스 6" transform="translate(-1244.008 -674.798)"/>
        <path id="패스_7" d="M1264.2 674.8c0 .358.024.718.005 1.075a6.086 6.086 0 0 1-.781 2.662 8.139 8.139 0 0 1-3.035 3.153 4.909 4.909 0 0 1-2.689.686c-.127-.005-.182-.026-.194-.174a5.985 5.985 0 0 1 .6-3.081 7.451 7.451 0 0 1 5.207-4.2c.229-.057.465-.083.7-.124z" class="cls-1" data-name="패스 7" transform="translate(-1244.008 -674.798)"/>
    </g>
    <g id="패스_8" class="cls-2" data-name="패스 8">
        <path d="M1424.857 692a29.781 29.781 0 0 1-29.559 30h-165.882a29.783 29.783 0 0 1-29.559-30 29.783 29.783 0 0 1 29.559-30H1395.3a29.781 29.781 0 0 1 29.559 30z" class="cls-4" transform="translate(-1199.857 -662)"/>
        <path d="M1229.416 665c-3.58 0-7.053.711-10.321 2.114a26.457 26.457 0 0 0-8.443 5.778 26.945 26.945 0 0 0-5.703 8.585 27.21 27.21 0 0 0-2.092 10.523c0 3.652.704 7.192 2.092 10.523a26.945 26.945 0 0 0 5.703 8.585 26.457 26.457 0 0 0 8.443 5.778 26.015 26.015 0 0 0 10.32 2.114h165.883a26.02 26.02 0 0 0 10.323-2.114 26.45 26.45 0 0 0 8.442-5.778 26.94 26.94 0 0 0 5.702-8.584 27.214 27.214 0 0 0 2.092-10.524c0-3.652-.704-7.193-2.092-10.524a26.94 26.94 0 0 0-5.702-8.584 26.45 26.45 0 0 0-8.442-5.778 26.02 26.02 0 0 0-10.323-2.114h-165.882m0-3h165.882c16.327 0 29.56 13.431 29.56 30 0 16.569-13.233 30-29.56 30h-165.882c-16.322 0-29.559-13.431-29.559-30 0-16.569 13.237-30 29.559-30z" class="cls-5" transform="translate(-1199.857 -662)"/>
    </g>
    <text id="App_Store" class="cls-3" data-name="App Store" transform="translate(86.84 38.117)">
        <tspan x="0" y="0">App Store</tspan>
    </text>
</svg>
