<svg xmlns="http://www.w3.org/2000/svg" width="271" height="60" viewBox="0 0 271 60">
    <defs>
        <style>
            .prefix__cls-1{fill:#fff;fill-rule:evenodd}
        </style>
    </defs>
    <g id="prefix__apple_btn" transform="translate(0 -.046)">
        <g id="prefix__그룹_4" data-name="그룹 4" transform="translate(30.108 12.046)">
            <path id="prefix__패스_6" d="M1244.008 693.54v-1.34c.008-.043.018-.084.022-.128.03-.348.049-.7.089-1.044a10.875 10.875 0 0 1 1.319-4.144 8.477 8.477 0 0 1 4.891-4.06 6.781 6.781 0 0 1 2.678-.334 7.642 7.642 0 0 1 1.852.431c.808.279 1.614.57 2.416.868a2.419 2.419 0 0 0 1.8.017c.761-.3 1.537-.563 2.309-.834a9.767 9.767 0 0 1 2.576-.578 8.11 8.11 0 0 1 2.4.243 7.556 7.556 0 0 1 4.141 2.416c.217.249.413.519.621.781-.235.165-.447.305-.652.458a7.428 7.428 0 0 0-2.3 2.664 7.758 7.758 0 0 0-.563 5.3 7.511 7.511 0 0 0 4.4 5.294v.06c-.021.041-.043.082-.06.124-.246.638-.474 1.286-.743 1.915a20.646 20.646 0 0 1-2.575 4.27 9.923 9.923 0 0 1-1.772 1.894 3.979 3.979 0 0 1-3.314.87 10.181 10.181 0 0 1-1.986-.635 7.956 7.956 0 0 0-2.4-.625 7.011 7.011 0 0 0-2.94.449c-.643.229-1.278.488-1.926.7a3.98 3.98 0 0 1-1.7.207 3.818 3.818 0 0 1-1.859-.781 10.38 10.38 0 0 1-1.881-1.9 22.008 22.008 0 0 1-3.932-7.458 20.51 20.51 0 0 1-.861-4.5c-.015-.205-.033-.402-.05-.6z" class="prefix__cls-1" data-name="패스 6" transform="translate(-1244.008 -674.798)"/>
            <path id="prefix__패스_7" d="M1264.2 674.8c0 .358.024.718.005 1.075a6.086 6.086 0 0 1-.781 2.662 8.139 8.139 0 0 1-3.035 3.153 4.909 4.909 0 0 1-2.689.686c-.127-.005-.182-.026-.194-.174a5.985 5.985 0 0 1 .6-3.081 7.451 7.451 0 0 1 5.207-4.2c.229-.057.465-.083.7-.124z" class="prefix__cls-1" data-name="패스 7" transform="translate(-1243.312 -674.798)"/>
        </g>
        <text id="prefix__App_Store" data-name="App Store" transform="translate(108.108 38.046)" style="font-size:21px;font-family:SegoeUI,Segoe UI;fill:#fff">
            <tspan x="0" y="0">App Store</tspan>
        </text>
        <g id="prefix__사각형_2166" data-name="사각형 2166" transform="translate(0 .046)" style="stroke:#fff;stroke-width:3px;fill:none">
            <rect width="271" height="60" rx="30" style="stroke:none"/>
            <rect width="268" height="57" x="1.5" y="1.5" rx="28.5" style="fill:none"/>
        </g>
    </g>
</svg>
