<svg xmlns="http://www.w3.org/2000/svg" width="228.357" height="60" viewBox="0 0 228.357 60">
    <defs>
        <style>
            .cls-1{fill:none;stroke-miterlimit:10}.cls-2,.cls-4{fill:#fff}.cls-3,.cls-4{stroke:none}
        </style>
    </defs>
    <g id="btn_google" transform="translate(-891.5 -662)">
        <g id="패스_1" class="cls-1" data-name="패스 1">
            <path d="M1119.857 692a30 30 0 0 1-30 30H921.5a30 30 0 0 1-30-30 30 30 0 0 1 30-30h168.357a30 30 0 0 1 30 30z" class="cls-3"/>
            <path d="M921.5 665a26.914 26.914 0 0 0-19.092 7.908A26.911 26.911 0 0 0 894.5 692a26.911 26.911 0 0 0 7.908 19.092A26.914 26.914 0 0 0 921.5 719h168.357a26.91 26.91 0 0 0 19.093-7.908 26.91 26.91 0 0 0 7.907-19.092 26.91 26.91 0 0 0-7.907-19.092 26.91 26.91 0 0 0-19.093-7.908H921.5m0-3h168.357c16.571 0 30 13.431 30 30 0 16.569-13.429 30-30 30H921.5c-16.568 0-30-13.431-30-30 0-16.569 13.432-30 30-30z" class="cls-4"/>
        </g>
        <g id="그룹_2" data-name="그룹 2">
            <g id="그룹_1" data-name="그룹 1">
                <path id="패스_2" d="M930.447 676a2.541 2.541 0 0 0-1.49 2.252v27.8a2.924 2.924 0 0 0 1.49 1.951l15.9-15.9z" class="cls-2" data-name="패스 2"/>
                <path id="패스_3" d="M934.041 676.9l13.659 13.657 3.729-3.728z" class="cls-2" data-name="패스 3"/>
                <path id="패스_4" d="M934.041 706.931l13.627-13.631 3.746 3.746z" class="cls-2" data-name="패스 4"/>
                <path id="패스_5" d="M949.162 692l4.076-4.077 3.551 2.227a2.205 2.205 0 0 1 1.018 1.85 2.256 2.256 0 0 1-1.018 1.981l-3.594 2.1z" class="cls-2" data-name="패스 5"/>
            </g>
            <path id="패스_10" d="M12.92-1A9.833 9.833 0 0 1 8 .246a6.726 6.726 0 0 1-5.091-2.03A7.447 7.447 0 0 1 .964-7.157a7.646 7.646 0 0 1 2.158-5.6 7.358 7.358 0 0 1 5.47-2.189 9.309 9.309 0 0 1 4.03.779v1.907A7.739 7.739 0 0 0 8.4-13.392a5.278 5.278 0 0 0-4.05 1.7A6.225 6.225 0 0 0 2.769-7.28 6.229 6.229 0 0 0 4.235-2.9a5.139 5.139 0 0 0 3.978 1.6 6.147 6.147 0 0 0 2.987-.689v-4.122H7.978V-7.67h4.942zM20.5.246a4.87 4.87 0 0 1-3.717-1.471 5.45 5.45 0 0 1-1.389-3.9 5.678 5.678 0 0 1 1.446-4.132 5.2 5.2 0 0 1 3.907-1.487A4.709 4.709 0 0 1 24.409-9.3a5.733 5.733 0 0 1 1.318 4.009 5.641 5.641 0 0 1-1.42 4.025A4.976 4.976 0 0 1 20.5.246zm.123-9.577a3.2 3.2 0 0 0-2.563 1.1 4.527 4.527 0 0 0-.943 3.04 4.281 4.281 0 0 0 .954 2.943 3.241 3.241 0 0 0 2.553 1.077 3.074 3.074 0 0 0 2.507-1.056 4.583 4.583 0 0 0 .877-3 4.662 4.662 0 0 0-.877-3.035 3.061 3.061 0 0 0-2.51-1.069zM32.8.246a4.87 4.87 0 0 1-3.717-1.471 5.45 5.45 0 0 1-1.389-3.9 5.678 5.678 0 0 1 1.446-4.132 5.2 5.2 0 0 1 3.907-1.487A4.709 4.709 0 0 1 36.714-9.3a5.733 5.733 0 0 1 1.318 4.009 5.641 5.641 0 0 1-1.42 4.025A4.976 4.976 0 0 1 32.8.246zm.123-9.577a3.2 3.2 0 0 0-2.563 1.1 4.527 4.527 0 0 0-.943 3.04 4.281 4.281 0 0 0 .954 2.943 3.241 3.241 0 0 0 2.553 1.077 3.074 3.074 0 0 0 2.507-1.056 4.583 4.583 0 0 0 .877-3 4.662 4.662 0 0 0-.877-3.035 3.061 3.061 0 0 0-2.506-1.069zM49.68-.841q0 5.783-5.537 5.783a7.435 7.435 0 0 1-3.4-.738V2.522a6.992 6.992 0 0 0 3.384.984Q48 3.507 48-.615v-1.149h-.041a3.932 3.932 0 0 1-3.611 2.01 3.942 3.942 0 0 1-3.153-1.4A5.6 5.6 0 0 1 40-4.912a6.537 6.537 0 0 1 1.287-4.255 4.3 4.3 0 0 1 3.522-1.579 3.422 3.422 0 0 1 3.148 1.7H48V-10.5h1.68zM48-4.748V-6.3a3 3 0 0 0-.846-2.143 2.785 2.785 0 0 0-2.107-.892A2.92 2.92 0 0 0 42.6-8.2a5.057 5.057 0 0 0-.882 3.174 4.342 4.342 0 0 0 .846 2.8 2.733 2.733 0 0 0 2.24 1.051 2.927 2.927 0 0 0 2.3-1A3.746 3.746 0 0 0 48-4.748zM54.766 0h-1.682v-15.545h1.682zm11.843-4.83H59.2a3.927 3.927 0 0 0 .943 2.707 3.252 3.252 0 0 0 2.481.954 5.159 5.159 0 0 0 3.261-1.169v1.579a6.094 6.094 0 0 1-3.661 1 4.438 4.438 0 0 1-3.5-1.43 5.855 5.855 0 0 1-1.271-4.025A5.742 5.742 0 0 1 58.842-9.2a4.455 4.455 0 0 1 3.45-1.543 3.948 3.948 0 0 1 3.189 1.333 5.558 5.558 0 0 1 1.128 3.7zm-1.722-1.425a3.421 3.421 0 0 0-.7-2.266 2.393 2.393 0 0 0-1.923-.81 2.716 2.716 0 0 0-2.02.851 3.862 3.862 0 0 0-1.025 2.225zm11.966.7V0H75.13v-14.7h4.04a5.332 5.332 0 0 1 3.656 1.148 4.1 4.1 0 0 1 1.3 3.24 4.456 4.456 0 0 1-1.441 3.425 5.5 5.5 0 0 1-3.891 1.333zm0-7.588v6.029h1.8a4.035 4.035 0 0 0 2.722-.815 2.886 2.886 0 0 0 .938-2.3q0-2.912-3.445-2.912zM88.348 0h-1.682v-15.545h1.682zm10.92 0h-1.682v-1.641h-.041a3.521 3.521 0 0 1-3.23 1.887 3.452 3.452 0 0 1-2.455-.83 2.878 2.878 0 0 1-.887-2.2q0-2.943 3.466-3.425l3.148-.441q0-2.676-2.164-2.676A5.169 5.169 0 0 0 92-8.039v-1.723a6.507 6.507 0 0 1 3.568-.984q3.7 0 3.7 3.917zm-1.682-5.312l-2.533.349a4.112 4.112 0 0 0-1.764.579 1.671 1.671 0 0 0-.589 1.472 1.6 1.6 0 0 0 .549 1.256 2.12 2.12 0 0 0 1.461.487 2.7 2.7 0 0 0 2.066-.877 3.132 3.132 0 0 0 .815-2.22zm13.207-5.188l-4.83 12.182q-1.292 3.261-3.63 3.261a3.848 3.848 0 0 1-1.1-.133V3.3a3.117 3.117 0 0 0 .995.185 2.061 2.061 0 0 0 1.907-1.518l.841-1.989-4.1-10.479h1.866l2.84 8.08q.051.154.215.8h.062q.051-.246.205-.779l2.984-8.1z" class="cls-2" data-name="패스 10" transform="translate(975.114 699.117)"/>
        </g>
    </g>
</svg>
