<svg xmlns="http://www.w3.org/2000/svg" width="154" height="39" viewBox="0 0 154 39">
    <defs>
        <style>
            .prefix__cls-2{fill:#fff}
        </style>
    </defs>
    <g id="prefix__btn_google">
        <g id="prefix__패스_1" data-name="패스 1" style="fill:none;stroke-miterlimit:10">
            <path d="M1045.5 681.5c0 10.77-9.057 19.5-20.231 19.5H911.732c-11.173 0-20.231-8.73-20.231-19.5s9.058-19.5 20.231-19.5h113.537c11.175 0 20.231 8.73 20.231 19.5z" style="stroke:none" transform="translate(-891.5 -662)"/>
            <path d="M1025.269 699c4.884 0 9.472-1.83 12.918-5.151 3.426-3.303 5.313-7.688 5.313-12.349 0-4.66-1.887-9.046-5.313-12.349-3.446-3.322-8.034-5.151-12.918-5.151H911.732c-4.884 0-9.472 1.83-12.918 5.151-3.427 3.303-5.314 7.689-5.314 12.35 0 4.66 1.887 9.045 5.314 12.348 3.446 3.322 8.034 5.151 12.918 5.151h113.537m0 2H911.732c-11.174 0-20.232-8.73-20.232-19.5s9.058-19.5 20.232-19.5h113.537c11.174 0 20.231 8.73 20.231 19.5s-9.057 19.5-20.231 19.5z" style="stroke:none;fill:#fff" transform="translate(-891.5 -662)"/>
        </g>
        <g id="prefix__그룹_2" data-name="그룹 2" transform="translate(22.3 8.881)">
            <g id="prefix__그룹_1" data-name="그룹 1" transform="translate(1.7 2.119)">
                <path id="prefix__패스_2" d="M929.745 676a1.349 1.349 0 0 0-.788 1.2v14.767a1.553 1.553 0 0 0 .788 1.036l8.406-8.446z" class="prefix__cls-2" data-name="패스 2" transform="translate(-928.957 -676)"/>
                <path id="prefix__패스_3" d="M934.041 676.9l7.023 7.222 1.917-1.971z" class="prefix__cls-2" data-name="패스 3" transform="translate(-931.353 -676.422)"/>
                <path id="prefix__패스_4" d="M934.041 700.507l7-7.2 1.926 1.981z" class="prefix__cls-2" data-name="패스 4" transform="translate(-931.353 -684.073)"/>
                <path id="prefix__패스_5" d="M949.162 690.078l2.155-2.155 1.877 1.177a1.165 1.165 0 0 1 .538.978 1.193 1.193 0 0 1-.538 1.047l-1.9 1.111z" class="prefix__cls-2" data-name="패스 5" transform="translate(-938.735 -681.578)"/>
            </g>
            <text id="prefix__Google_Play" data-name="Google Play" transform="translate(31.7 16.119)" style="font-size:14px;font-family:SegoeUI,Segoe UI;fill:#fff">
                <tspan x="0" y="0">Google Play</tspan>
            </text>
        </g>
    </g>
</svg>
