<svg xmlns="http://www.w3.org/2000/svg" id="prefix__btn_appstore" width="154" height="39" viewBox="0 0 154 39">
    <defs>
        <style>
            .prefix__cls-3{fill:#fff;fill-rule:evenodd}
        </style>
    </defs>
    <g id="prefix__패스_1" data-name="패스 1" style="fill:none;stroke-miterlimit:10">
        <path d="M1045.5 681.5c0 10.77-9.057 19.5-20.231 19.5H911.731c-11.173 0-20.231-8.73-20.231-19.5s9.058-19.5 20.231-19.5h113.537c11.175 0 20.231 8.73 20.231 19.5z" style="stroke:none" transform="translate(-891.5 -662)"/>
        <path d="M1025.269 699c4.884 0 9.472-1.83 12.918-5.151 3.426-3.303 5.313-7.688 5.313-12.349 0-4.66-1.887-9.046-5.313-12.349-3.446-3.322-8.034-5.151-12.918-5.151H911.73c-4.883 0-9.47 1.83-12.917 5.151-3.427 3.303-5.314 7.689-5.314 12.35 0 4.66 1.887 9.045 5.314 12.348 3.446 3.322 8.034 5.151 12.917 5.151h113.538m0 2H911.73c-11.173 0-20.231-8.73-20.231-19.5s9.058-19.5 20.231-19.5h113.538c11.175 0 20.231 8.73 20.231 19.5s-9.056 19.5-20.231 19.5z" style="stroke:none;fill:#fff" transform="translate(-891.5 -662)"/>
    </g>
    <g id="prefix__그룹_2" data-name="그룹 2" transform="translate(20.381 7.403)">
        <text id="prefix__App_Store" data-name="App Store" transform="translate(35.619 16.597)" style="font-size:14px;font-family:SegoeUI,Segoe UI;fill:#fff">
            <tspan x="0" y="0">App Store</tspan>
        </text>
        <g id="prefix__그룹_4" data-name="그룹 4" transform="translate(.619 2.597)">
            <path id="prefix__패스_6" d="M1244.008 688.28v-.709a.684.684 0 0 0 .012-.067c.016-.184.026-.369.048-.552a5.7 5.7 0 0 1 .707-2.191 4.528 4.528 0 0 1 2.62-2.147 3.678 3.678 0 0 1 1.435-.177 4.136 4.136 0 0 1 .992.228c.433.147.865.3 1.295.459a1.312 1.312 0 0 0 .964.009c.408-.158.824-.3 1.237-.441a5.29 5.29 0 0 1 1.38-.305 4.4 4.4 0 0 1 1.286.129 4.06 4.06 0 0 1 2.218 1.277c.116.132.221.275.333.413-.126.088-.239.161-.349.242a3.944 3.944 0 0 0-1.23 1.408 4.054 4.054 0 0 0-.3 2.8 3.985 3.985 0 0 0 2.356 2.8v.031c-.011.022-.023.043-.032.066-.132.337-.254.68-.4 1.012a10.88 10.88 0 0 1-1.38 2.258 5.275 5.275 0 0 1-.949 1 2.152 2.152 0 0 1-1.775.46 5.514 5.514 0 0 1-1.064-.336 4.309 4.309 0 0 0-1.288-.331 3.8 3.8 0 0 0-1.575.237c-.344.121-.684.258-1.032.371a2.159 2.159 0 0 1-.909.109 2.061 2.061 0 0 1-1-.413 5.537 5.537 0 0 1-1.008-1.007 11.592 11.592 0 0 1-2.106-3.943 10.712 10.712 0 0 1-.461-2.38c-.006-.102-.016-.206-.025-.31z" class="prefix__cls-3" data-name="패스 6" transform="translate(-1244.008 -678.347)"/>
            <path id="prefix__패스_7" d="M1261.054 674.8c0 .19.013.382 0 .572a3.237 3.237 0 0 1-.415 1.416 4.328 4.328 0 0 1-1.614 1.677 2.611 2.611 0 0 1-1.43.365c-.068 0-.1-.014-.1-.093a3.185 3.185 0 0 1 .319-1.639 3.963 3.963 0 0 1 2.769-2.232c.122-.03.247-.044.372-.066z" class="prefix__cls-3" data-name="패스 7" transform="translate(-1249.875 -674.798)"/>
        </g>
    </g>
</svg>
