<svg xmlns="http://www.w3.org/2000/svg" width="228.358" height="60" viewBox="0 0 228.358 60">
    <defs>
        <style>
            .cls-1,.cls-3,.cls-5{fill:#fff}.cls-1{fill-rule:evenodd}.cls-2{fill:none;stroke-miterlimit:10}.cls-4,.cls-5{stroke:none}
        </style>
    </defs>
    <g id="btn_apple" transform="translate(-1199.857 -662)">
        <g id="그룹_4" data-name="그룹 4">
            <path id="패스_6" d="M1244.008 692.7v-1.239c.008-.04.017-.078.021-.118.029-.322.047-.645.086-.965a9.775 9.775 0 0 1 1.27-3.83 8.092 8.092 0 0 1 4.708-3.753 6.781 6.781 0 0 1 2.578-.309 7.616 7.616 0 0 1 1.783.4q1.167.387 2.326.8a2.419 2.419 0 0 0 1.733.016c.733-.277 1.48-.52 2.223-.771a9.735 9.735 0 0 1 2.48-.534 8.121 8.121 0 0 1 2.31.225 7.344 7.344 0 0 1 3.986 2.233c.209.23.4.48.6.722-.226.153-.43.282-.628.423a7.03 7.03 0 0 0 1.481 12.253v.055c-.02.038-.041.076-.058.115-.237.59-.456 1.189-.715 1.77a18.951 18.951 0 0 1-2.479 3.947 9.339 9.339 0 0 1-1.706 1.751 3.946 3.946 0 0 1-3.19.8 10.094 10.094 0 0 1-1.912-.587 7.917 7.917 0 0 0-2.315-.578 7 7 0 0 0-2.83.415c-.619.212-1.23.451-1.854.648a3.979 3.979 0 0 1-1.633.191 3.756 3.756 0 0 1-1.79-.722 9.8 9.8 0 0 1-1.811-1.76 20.083 20.083 0 0 1-3.785-6.893 18.284 18.284 0 0 1-.829-4.161l-.05-.544z" class="cls-1" data-name="패스 6"/>
            <path id="패스_7" d="M1264.2 674.8c0 .358.024.718.005 1.075a6.086 6.086 0 0 1-.781 2.662 8.139 8.139 0 0 1-3.035 3.153 4.909 4.909 0 0 1-2.689.686c-.127-.005-.182-.026-.194-.174a5.985 5.985 0 0 1 .6-3.081 7.451 7.451 0 0 1 5.207-4.2c.229-.057.465-.083.7-.124z" class="cls-1" data-name="패스 7"/>
        </g>
        <g id="패스_8" class="cls-2" data-name="패스 8">
            <path d="M1428.215 692a30 30 0 0 1-30 30h-168.358a30 30 0 0 1-30-30 30 30 0 0 1 30-30h168.358a30 30 0 0 1 30 30z" class="cls-4"/>
            <path d="M1229.857 665a26.918 26.918 0 0 0-19.091 7.908 26.914 26.914 0 0 0-7.909 19.092 26.914 26.914 0 0 0 7.909 19.092 26.918 26.918 0 0 0 19.091 7.908h168.358a26.91 26.91 0 0 0 19.092-7.908 26.911 26.911 0 0 0 7.908-19.092 26.911 26.911 0 0 0-7.908-19.092 26.91 26.91 0 0 0-19.092-7.908h-168.358m0-3h168.358c16.57 0 30 13.431 30 30 0 16.569-13.43 30-30 30h-168.358c-16.566 0-30-13.431-30-30 0-16.569 13.434-30 30-30z" class="cls-5"/>
        </g>
        <path id="패스_9" d="M13.31 0H11.4L9.844-4.122H3.609L2.143 0H.226l5.64-14.7h1.783zM9.28-5.67l-2.307-6.266a6 6 0 0 1-.226-.984h-.041a5.492 5.492 0 0 1-.236.984L4.184-5.67zm7.69 4.153h-.041V4.83h-1.681V-10.5h1.682v1.846h.041a3.976 3.976 0 0 1 3.63-2.092 3.845 3.845 0 0 1 3.168 1.41 5.84 5.84 0 0 1 1.138 3.779 6.508 6.508 0 0 1-1.282 4.219A4.268 4.268 0 0 1 20.118.246a3.513 3.513 0 0 1-3.148-1.764zm-.041-4.235v1.466a3.122 3.122 0 0 0 .846 2.21 2.809 2.809 0 0 0 2.148.907 2.815 2.815 0 0 0 2.394-1.169 5.363 5.363 0 0 0 .866-3.25 4.233 4.233 0 0 0-.81-2.748 2.681 2.681 0 0 0-2.194-.995 2.979 2.979 0 0 0-2.358 1.02 3.746 3.746 0 0 0-.892 2.559zm12.387 4.234h-.041V4.83h-1.682V-10.5h1.682v1.846h.041a3.976 3.976 0 0 1 3.63-2.092 3.845 3.845 0 0 1 3.168 1.41 5.84 5.84 0 0 1 1.138 3.779 6.508 6.508 0 0 1-1.282 4.219A4.268 4.268 0 0 1 32.464.246a3.513 3.513 0 0 1-3.148-1.764zm-.041-4.235v1.466a3.122 3.122 0 0 0 .846 2.21 2.809 2.809 0 0 0 2.148.907 2.815 2.815 0 0 0 2.394-1.169 5.363 5.363 0 0 0 .866-3.25 4.233 4.233 0 0 0-.81-2.748 2.681 2.681 0 0 0-2.194-.995 2.979 2.979 0 0 0-2.358 1.02 3.746 3.746 0 0 0-.892 2.56zM45.23-.595v-2.03a3.943 3.943 0 0 0 .836.554 6.771 6.771 0 0 0 1.025.415 8.163 8.163 0 0 0 1.082.261 6.031 6.031 0 0 0 1 .092 3.936 3.936 0 0 0 2.374-.59 1.994 1.994 0 0 0 .784-1.7 1.993 1.993 0 0 0-.261-1.036 2.945 2.945 0 0 0-.723-.8 7.173 7.173 0 0 0-1.092-.7q-.631-.333-1.359-.7-.769-.39-1.436-.79a6.221 6.221 0 0 1-1.153-.881 3.678 3.678 0 0 1-.774-1.092 3.38 3.38 0 0 1-.282-1.43 3.364 3.364 0 0 1 .441-1.748A3.782 3.782 0 0 1 46.85-14a5.253 5.253 0 0 1 1.635-.718 7.489 7.489 0 0 1 1.871-.236 7.171 7.171 0 0 1 3.168.523v1.938a5.743 5.743 0 0 0-3.343-.9 5.5 5.5 0 0 0-1.128.118 3.186 3.186 0 0 0-1 .385 2.226 2.226 0 0 0-.718.687 1.824 1.824 0 0 0-.277 1.025 2.111 2.111 0 0 0 .21.974 2.388 2.388 0 0 0 .62.749 6.179 6.179 0 0 0 1 .656q.59.318 1.359.7.79.39 1.5.82a6.843 6.843 0 0 1 1.241.954 4.238 4.238 0 0 1 .846 1.159 3.257 3.257 0 0 1 .313 1.456 3.692 3.692 0 0 1-.426 1.841 3.492 3.492 0 0 1-1.154 1.223A5.016 5.016 0 0 1 50.9.036a9.125 9.125 0 0 1-1.989.21A8.106 8.106 0 0 1 48.05.19Q47.537.133 47 .026a8.534 8.534 0 0 1-1.01-.267 3.143 3.143 0 0 1-.76-.354zM61.042-.1a3.242 3.242 0 0 1-1.569.328q-2.758 0-2.758-3.076v-6.216h-1.8V-10.5h1.8v-2.563l1.682-.543v3.106h2.646v1.436H58.4v5.917a2.453 2.453 0 0 0 .359 1.507 1.432 1.432 0 0 0 1.189.451 1.768 1.768 0 0 0 1.1-.349zm6.634.349a4.87 4.87 0 0 1-3.717-1.471 5.45 5.45 0 0 1-1.389-3.9 5.678 5.678 0 0 1 1.446-4.132 5.2 5.2 0 0 1 3.907-1.487A4.709 4.709 0 0 1 71.588-9.3a5.733 5.733 0 0 1 1.318 4.009 5.641 5.641 0 0 1-1.42 4.025 4.976 4.976 0 0 1-3.81 1.512zm.124-9.58a3.2 3.2 0 0 0-2.563 1.1 4.527 4.527 0 0 0-.943 3.04 4.281 4.281 0 0 0 .954 2.943A3.241 3.241 0 0 0 67.8-1.169a3.074 3.074 0 0 0 2.507-1.056 4.583 4.583 0 0 0 .877-3 4.662 4.662 0 0 0-.877-3.035A3.061 3.061 0 0 0 67.8-9.331zm13.267.531a2.056 2.056 0 0 0-1.267-.336A2.146 2.146 0 0 0 78-8.121a4.693 4.693 0 0 0-.723 2.769V0h-1.685v-10.5h1.682v2.164h.041a3.666 3.666 0 0 1 1.1-1.728 2.5 2.5 0 0 1 1.651-.62 2.745 2.745 0 0 1 1 .144zm10.265 3.97h-7.414a3.927 3.927 0 0 0 .943 2.707 3.252 3.252 0 0 0 2.481.954A5.159 5.159 0 0 0 90.6-2.338v1.579a6.094 6.094 0 0 1-3.661 1 4.438 4.438 0 0 1-3.5-1.43 5.855 5.855 0 0 1-1.271-4.025A5.742 5.742 0 0 1 83.564-9.2a4.455 4.455 0 0 1 3.45-1.543 3.948 3.948 0 0 1 3.186 1.33 5.558 5.558 0 0 1 1.128 3.7zm-1.723-1.425a3.421 3.421 0 0 0-.7-2.266 2.393 2.393 0 0 0-1.923-.81 2.716 2.716 0 0 0-2.02.851 3.862 3.862 0 0 0-1.025 2.225z" class="cls-3" data-name="패스 9" transform="translate(1291.697 700.117)"/>
    </g>
</svg>
