<svg xmlns="http://www.w3.org/2000/svg" width="271" height="60" viewBox="0 0 271 60">
    <defs>
        <style>
            .prefix__cls-1{fill:#fff}
        </style>
    </defs>
    <g id="prefix__google_btn" transform="translate(0 -.046)">
        <g id="prefix__그룹_2" data-name="그룹 2" transform="translate(34.1 14)">
            <g id="prefix__그룹_1" data-name="그룹 1" transform="translate(-4.1 .046)">
                <path id="prefix__패스_2" d="M930.447 676a2.541 2.541 0 0 0-1.49 2.252v27.8a2.924 2.924 0 0 0 1.49 1.951l15.9-15.9z" class="prefix__cls-1" data-name="패스 2" transform="translate(-928.957 -676)"/>
                <path id="prefix__패스_3" d="M934.041 676.9l13.659 13.657 3.729-3.728z" class="prefix__cls-1" data-name="패스 3" transform="translate(-929.336 -676)"/>
                <path id="prefix__패스_4" d="M934.041 706.931l13.627-13.631 3.746 3.746z" class="prefix__cls-1" data-name="패스 4" transform="translate(-929.335 -676)"/>
                <path id="prefix__패스_5" d="M949.162 692l4.076-4.077 3.551 2.227a2.205 2.205 0 0 1 1.018 1.85 2.256 2.256 0 0 1-1.018 1.981l-3.594 2.1z" class="prefix__cls-1" data-name="패스 5" transform="translate(-929.812 -676)"/>
            </g>
            <text id="prefix__Google_Play" data-name="Google Play" transform="translate(65.9 24.046)" style="font-size:21px;font-family:SegoeUI,Segoe UI;fill:#fff">
                <tspan x="0" y="0">Google Play</tspan>
            </text>
        </g>
        <g id="prefix__사각형_2165" data-name="사각형 2165" transform="translate(0 .046)" style="stroke:#fff;stroke-width:3px;fill:none">
            <rect width="271" height="60" rx="30" style="stroke:none"/>
            <rect width="268" height="57" x="1.5" y="1.5" rx="28.5" style="fill:none"/>
        </g>
    </g>
</svg>
