<svg xmlns="http://www.w3.org/2000/svg" id="google" width="140" height="38" viewBox="0 0 140 38">
    <defs>
        <style>
            .cls-1{fill:none;stroke-miterlimit:10}.cls-2,.cls-4{fill:#fff}.cls-3,.cls-4{stroke:none}
        </style>
    </defs>
    <g id="패스_1" class="cls-1" data-name="패스 1">
        <path d="M1031.5 681c0 10.494-8.233 19-18.392 19H909.892c-10.157 0-18.392-8.506-18.392-19s8.235-19 18.392-19h103.216c10.159 0 18.392 8.506 18.392 19z" class="cls-3" transform="translate(-891.5 -662)"/>
        <path d="M909.892 664c-4.366 0-8.474 1.76-11.568 4.956-3.11 3.214-4.824 7.491-4.824 12.044 0 4.553 1.713 8.83 4.824 12.044 3.094 3.196 7.202 4.956 11.568 4.956h103.216c4.366 0 8.475-1.76 11.569-4.956 3.11-3.213 4.823-7.49 4.823-12.044 0-4.553-1.713-8.83-4.824-12.044-3.093-3.196-7.202-4.956-11.568-4.956H909.892m0-2h103.216c10.159 0 18.392 8.506 18.392 19s-8.233 19-18.392 19H909.892c-10.157 0-18.392-8.506-18.392-19s8.235-19 18.392-19z" class="cls-4" transform="translate(-891.5 -662)"/>
    </g>
    <g id="그룹_2" data-name="그룹 2" transform="translate(19.389 8.211)">
        <g id="그룹_1" data-name="그룹 1" transform="translate(0 1.908)">
            <path id="패스_2" d="M929.786 676a1.414 1.414 0 0 0-.829 1.253v15.466a1.627 1.627 0 0 0 .829 1.086l8.847-8.845z" class="cls-2" data-name="패스 2" transform="translate(-928.957 -676)"/>
            <path id="패스_3" d="M934.041 676.9l7.6 7.6 2.075-2.074z" class="cls-2" data-name="패스 3" transform="translate(-931.212 -676.397)"/>
            <path id="패스_4" d="M934.041 700.885l7.582-7.582 2.084 2.084z" class="cls-2" data-name="패스 4" transform="translate(-931.212 -683.676)"/>
            <path id="패스_5" d="M949.162 690.191l2.268-2.268 1.976 1.239a1.227 1.227 0 0 1 .567 1.029 1.255 1.255 0 0 1-.567 1.1l-2 1.169z" class="cls-2" data-name="패스 5" transform="translate(-937.92 -681.289)"/>
        </g>
        <path id="패스_11" d="M7.383-.574A5.619 5.619 0 0 1 4.57.141 3.843 3.843 0 0 1 1.661-1.02a4.255 4.255 0 0 1-1.11-3.07 4.369 4.369 0 0 1 1.233-3.2A4.2 4.2 0 0 1 4.91-8.543a5.32 5.32 0 0 1 2.3.445v1.09a4.422 4.422 0 0 0-2.41-.644 3.016 3.016 0 0 0-2.314.973 3.557 3.557 0 0 0-.9 2.52 3.559 3.559 0 0 0 .838 2.5 2.937 2.937 0 0 0 2.273.911A3.513 3.513 0 0 0 6.4-1.137v-2.355H4.559v-.891h2.824zm4.33.715A2.783 2.783 0 0 1 9.589-.7a3.114 3.114 0 0 1-.794-2.23 3.244 3.244 0 0 1 .826-2.361 2.97 2.97 0 0 1 2.232-.85 2.691 2.691 0 0 1 2.095.826 3.276 3.276 0 0 1 .752 2.292 3.223 3.223 0 0 1-.812 2.3 2.844 2.844 0 0 1-2.175.864zm.07-5.473a1.828 1.828 0 0 0-1.465.63 2.587 2.587 0 0 0-.539 1.737 2.447 2.447 0 0 0 .545 1.682 1.852 1.852 0 0 0 1.459.615 1.757 1.757 0 0 0 1.433-.6 2.619 2.619 0 0 0 .5-1.717 2.664 2.664 0 0 0-.5-1.734 1.749 1.749 0 0 0-1.433-.613zM18.744.141A2.783 2.783 0 0 1 16.62-.7a3.114 3.114 0 0 1-.794-2.229 3.244 3.244 0 0 1 .826-2.361 2.97 2.97 0 0 1 2.232-.85 2.691 2.691 0 0 1 2.095.826 3.276 3.276 0 0 1 .753 2.291 3.223 3.223 0 0 1-.812 2.3 2.844 2.844 0 0 1-2.176.864zm.07-5.473a1.828 1.828 0 0 0-1.465.63 2.587 2.587 0 0 0-.539 1.737 2.447 2.447 0 0 0 .545 1.682 1.852 1.852 0 0 0 1.459.615 1.757 1.757 0 0 0 1.433-.6 2.619 2.619 0 0 0 .5-1.717 2.664 2.664 0 0 0-.5-1.734 1.749 1.749 0 0 0-1.433-.613zM28.389-.48q0 3.3-3.164 3.3a4.248 4.248 0 0 1-1.946-.42v-.959A4 4 0 0 0 25.213 2q2.215 0 2.215-2.355v-.656H27.4A2.247 2.247 0 0 1 25.342.141a2.252 2.252 0 0 1-1.8-.8 3.2 3.2 0 0 1-.683-2.147 3.735 3.735 0 0 1 .735-2.432 2.457 2.457 0 0 1 2.013-.9 1.956 1.956 0 0 1 1.8.973h.023V-6h.961zm-.961-2.232V-3.6a1.717 1.717 0 0 0-.483-1.225 1.591 1.591 0 0 0-1.2-.51 1.669 1.669 0 0 0-1.395.647 2.89 2.89 0 0 0-.5 1.813 2.481 2.481 0 0 0 .483 1.6 1.562 1.562 0 0 0 1.28.6 1.673 1.673 0 0 0 1.315-.574 2.14 2.14 0 0 0 .5-1.464zM31.295 0h-.961v-8.883h.961zm6.768-2.76h-4.237a2.244 2.244 0 0 0 .539 1.547 1.858 1.858 0 0 0 1.418.545 2.948 2.948 0 0 0 1.863-.668v.9a3.482 3.482 0 0 1-2.092.574 2.536 2.536 0 0 1-2-.817 3.346 3.346 0 0 1-.727-2.3 3.281 3.281 0 0 1 .794-2.282 2.546 2.546 0 0 1 1.979-.88 2.256 2.256 0 0 1 1.822.762 3.176 3.176 0 0 1 .645 2.115zm-.984-.814a1.955 1.955 0 0 0-.4-1.295 1.368 1.368 0 0 0-1.1-.463 1.552 1.552 0 0 0-1.154.486 2.207 2.207 0 0 0-.586 1.271zm6.838.4V0h-.984v-8.4h2.307a3.047 3.047 0 0 1 2.089.656 2.343 2.343 0 0 1 .741 1.852 2.547 2.547 0 0 1-.823 1.957 3.145 3.145 0 0 1-2.224.762zm0-4.336v3.445h1.031a2.306 2.306 0 0 0 1.552-.467 1.649 1.649 0 0 0 .536-1.315q0-1.664-1.969-1.664zM50.484 0h-.961v-8.883h.961zm6.24 0h-.961v-.937h-.023A2.012 2.012 0 0 1 53.895.141a1.973 1.973 0 0 1-1.4-.475 1.644 1.644 0 0 1-.507-1.26q0-1.682 1.98-1.957l1.8-.252q0-1.529-1.236-1.529a2.954 2.954 0 0 0-1.957.738v-.984a3.718 3.718 0 0 1 2.039-.562q2.115 0 2.115 2.238zm-.961-3.035l-1.447.2a2.35 2.35 0 0 0-1.008.331.955.955 0 0 0-.34.841.916.916 0 0 0 .313.718 1.211 1.211 0 0 0 .835.278 1.542 1.542 0 0 0 1.181-.5 1.79 1.79 0 0 0 .466-1.269zM63.311-6L60.551.961q-.738 1.863-2.074 1.863a2.2 2.2 0 0 1-.627-.076v-.861a1.781 1.781 0 0 0 .568.105 1.178 1.178 0 0 0 1.09-.867l.48-1.137L57.645-6h1.066l1.623 4.617q.029.088.123.457h.035q.029-.141.117-.445L62.314-6z" class="cls-2" data-name="패스 11" transform="translate(32.185 14)"/>
    </g>
</svg>
