<svg xmlns="http://www.w3.org/2000/svg" width="100" height="100" viewBox="0 0 100 100">
    <defs>
        <style>
            .cls-1{fill:none}.cls-2{fill:#0068b4}
        </style>
    </defs>
    <g id="market_icon" transform="translate(-600 -1759)">
        <path id="사각형_47" d="M0 0h100v100H0z" class="cls-1" data-name="사각형 47" transform="translate(600 1759)"/>
        <path id="패스_22" d="M524.1 309.35a1.19 1.19 0 0 0-1.187-1.1H516.5v-1.017a9.458 9.458 0 1 0-18.916 0v1.017h-6.414a1.189 1.189 0 0 0-1.187 1.1l-2.645 37.038a1.188 1.188 0 0 0 1.187 1.275h37.037a1.189 1.189 0 0 0 1.187-1.275zm-24.137-2.121a7.078 7.078 0 1 1 14.154 0v1.017h-14.151zM489.8 345.282l2.474-34.656h5.308v4.981a1.19 1.19 0 0 0 2.381 0v-4.981h14.157v4.981a1.19 1.19 0 0 0 2.381 0v-4.981h5.307l2.475 34.656z" class="cls-2" data-name="패스 22" transform="translate(142.666 1486.337)"/>
    </g>
</svg>
