<svg xmlns="http://www.w3.org/2000/svg" width="114" height="114" viewBox="0 0 114 114">
    <defs>
        <style>
            .cls-1{fill:none}.cls-2{fill:#0068b4}
        </style>
    </defs>
    <g id="market_icon" transform="translate(-.424 -.032)">
        <path id="사각형_47" d="M0 0h114v114H0z" class="cls-1" data-name="사각형 47" transform="translate(.424 .032)"/>
        <path id="패스_22" d="M526.721 310.182a1.274 1.274 0 0 0-1.272-1.182h-6.872v-1.089a10.132 10.132 0 1 0-20.262 0V309h-6.872a1.273 1.273 0 0 0-1.271 1.183l-2.833 39.675a1.273 1.273 0 0 0 1.271 1.366h39.674a1.273 1.273 0 0 0 1.271-1.366zm-25.855-2.273a7.581 7.581 0 1 1 15.161 0V309h-15.161zm-10.887 40.763l2.65-37.123h5.686v5.336a1.275 1.275 0 0 0 2.551 0v-5.336h15.161v5.336a1.275 1.275 0 1 0 2.55 0v-5.336h5.685l2.651 37.123z" class="cls-2" data-name="패스 22" transform="translate(-450.91 -267.632)"/>
    </g>
</svg>
