<svg xmlns="http://www.w3.org/2000/svg" width="100" height="100" viewBox="0 0 100 100">
    <defs>
        <style>
            .cls-1{fill:none}.cls-2{fill:#0068b4}
        </style>
    </defs>
    <g id="mining_icon" transform="translate(-1220 -1269)">
        <path id="사각형_47" d="M0 0h100v100H0z" class="cls-1" data-name="사각형 47" transform="translate(1220 1269)"/>
        <path id="패스_23" d="M570 403.39a1.079 1.079 0 0 0-.236-.351l-11.952-11.959c-.015-.015-.035-.02-.051-.034a1.067 1.067 0 0 0-.286-.185c-.009 0-.016-.009-.026-.012a1.071 1.071 0 0 0-.393-.088h-.012a1.062 1.062 0 0 0-.4.087c-.013 0-.024.012-.035.016a1.051 1.051 0 0 0-.279.18c-.016.014-.038.02-.053.035l-11.952 11.958a1.084 1.084 0 0 0-.319.77v23.907a1.084 1.084 0 0 0 .319.77l11.952 11.958c.017.016.04.023.059.038a1.015 1.015 0 0 0 .233.156 1.026 1.026 0 0 0 .1.048 1.075 1.075 0 0 0 .377.076h.012a1.054 1.054 0 0 0 .37-.077.794.794 0 0 0 .1-.048 1.084 1.084 0 0 0 .237-.158c.016-.014.038-.021.054-.036l11.953-11.96a1.088 1.088 0 0 0 .318-.768v-23.904a1.1 1.1 0 0 0-.09-.419zm-16.528 23.239V404.9h6.855v21.733zm6.388 2.174l-2.849 7.8-3.036-7.8zm-5.885-26.081l3.036-7.8 2.849 7.8zm8.2 0l-2.421-6.623 6.619 6.623zm-10.533 0h-3.928l6.437-6.44zm-.342 2.178v21.733h-5.121V404.9zm.343 23.907l2.509 6.44-6.437-6.44zm10.533 0h4.2l-6.619 6.622zm.326-2.174V404.9h5.409v21.733z" class="cls-2" data-name="패스 23" transform="rotate(45 -176.71 1727.821)"/>
    </g>
</svg>
