<svg xmlns="http://www.w3.org/2000/svg" width="114" height="114" viewBox="0 0 114 114">
    <defs>
        <style>
            .cls-1{fill:none}.cls-2{fill:#0068b4}
        </style>
    </defs>
    <g id="mining_icon" transform="translate(-.423 -.494)">
        <path id="사각형_47" d="M0 0h114v114H0z" class="cls-1" data-name="사각형 47" transform="translate(.423 .494)"/>
        <path id="패스_23" d="M29.75 14.451a1.235 1.235 0 0 0-.27-.4L15.8.364c-.018-.017-.04-.022-.058-.039a1.222 1.222 0 0 0-.327-.211c-.01 0-.019-.01-.03-.014a1.226 1.226 0 0 0-.45-.1h-.014a1.215 1.215 0 0 0-.459.1c-.015 0-.027.014-.04.019a1.2 1.2 0 0 0-.32.207c-.019.016-.044.022-.061.04L.366 14.05a1.241 1.241 0 0 0-.366.88v27.36a1.241 1.241 0 0 0 .366.881l13.677 13.684c.02.019.046.026.067.044a1.161 1.161 0 0 0 .266.179 1.174 1.174 0 0 0 .114.055 1.23 1.23 0 0 0 .432.087h.014a1.207 1.207 0 0 0 .423-.088.911.911 0 0 0 .109-.055 1.241 1.241 0 0 0 .271-.18c.019-.016.044-.024.062-.041l13.68-13.687a1.245 1.245 0 0 0 .364-.879V14.93a1.257 1.257 0 0 0-.095-.479zM10.836 41.046V16.174h7.845v24.872zm7.31 2.488l-3.26 8.921-3.474-8.921zm-6.735-29.848l3.474-8.921 3.26 8.921zm9.384 0l-2.77-7.579 7.575 7.579zm-12.054 0h-4.5l7.366-7.37zm-.393 2.488v24.872h-5.86V16.174zm.393 27.359l2.871 7.37-7.366-7.37zm12.054 0H25.6l-7.575 7.578zm.373-2.488V16.174h6.19v24.872z" class="cls-2" data-name="패스 23" transform="rotate(45 1.619 93.774)"/>
    </g>
</svg>
