<svg xmlns="http://www.w3.org/2000/svg" width="100" height="100" viewBox="0 0 100 100">
    <defs>
        <style>
            .cls-1{fill:none}.cls-2{fill:#0068b4}
        </style>
    </defs>
    <g id="service_icon" transform="translate(-600 -1269)">
        <path id="사각형_47" d="M0 0h100v100H0z" class="cls-1" data-name="사각형 47" transform="translate(600 1269)"/>
        <g id="그룹_39" data-name="그룹 39" transform="translate(737.912 1227)">
            <path id="패스_28" d="M-70.906 79.632a3.883 3.883 0 0 0-3.025-.042l-17.908 7.218 3.188-4.41a4.012 4.012 0 0 0 .612-3 3.979 3.979 0 0 0-1.661-2.556 3.926 3.926 0 0 0-5.45 1l-8.992 10.2c-.245.312-5.949 7.749-2.848 15.628 1.832 4.658 3.706 7.693 5.9 9.55a8.626 8.626 0 0 0 5.712 2.165 11.636 11.636 0 0 0 4.335-.919l7.342-2.959 5.509-2.22a4.022 4.022 0 0 0 2.209-5.2 3.982 3.982 0 0 0-1.445-1.829 4.027 4.027 0 0 0 1.088-4.485 3.99 3.99 0 0 0-1.442-1.828 3.961 3.961 0 0 0 1.043-1.425 4.019 4.019 0 0 0 .042-3.062 3.989 3.989 0 0 0-1.229-1.656l6.923-2.79a4.023 4.023 0 0 0 2.21-5.2 3.952 3.952 0 0 0-2.113-2.18zm-17.183 20.733l7.343-2.96a1.932 1.932 0 0 1 .729-.142 1.969 1.969 0 0 1 1.838 1.26 2.012 2.012 0 0 1-1.1 2.6l-7.344 2.96a2 2 0 0 1-2.567-1.119 2.011 2.011 0 0 1 1.101-2.599zm9.162 7.071l-4.589 1.85-.919.37A1.994 1.994 0 0 1-87 108.538a2.011 2.011 0 0 1 1.1-2.6l5.508-2.22a1.938 1.938 0 0 1 .73-.143 1.966 1.966 0 0 1 1.836 1.261 2.009 2.009 0 0 1-1.102 2.6zm-1.446-16.487a1.965 1.965 0 0 1 1.837 1.26 2 2 0 0 1-.021 1.531 2.418 2.418 0 0 1-1.084 1.294l-1.836.966-7.343 2.733a2.054 2.054 0 0 1-2.567-1.233 2.074 2.074 0 0 1 1.1-2.654l9.181-3.729a1.972 1.972 0 0 1 .732-.168zm8.636-5.9L-81.833 89l-9.179 3.816a4.087 4.087 0 0 0-2.209 5.255 3.993 3.993 0 0 0 2.358 2.316 4.057 4.057 0 0 0-.166 3.3 3.959 3.959 0 0 0 2.358 2.294 4.036 4.036 0 0 0-.165 3.291 3.982 3.982 0 0 0 1.229 1.659l-4.17 1.681c-5.867 2.365-9.743-.438-13.377-9.677-2.673-6.792 2.51-13.58 2.524-13.6l8.995-10.2.081-.1a1.965 1.965 0 0 1 2.745-.531 1.989 1.989 0 0 1 .83 1.279 1.986 1.986 0 0 1-.286 1.47l-7.168 9.914a1.007 1.007 0 0 0 .214 1.4.979.979 0 0 0 1.38-.217l1.8-2.494 20.838-8.4a1.948 1.948 0 0 1 1.512.021 1.871 1.871 0 0 1 1.054 1.039 1.945 1.945 0 0 1-1.103 2.532z" class="cls-2" data-name="패스 28" transform="rotate(-10.02 -78.883 96.368)"/>
            <path id="패스_29" d="M-84.129 74.844a1 1 0 0 0 .806.406 1 1 0 0 0 .593-.195 1 1 0 0 0 .21-1.4l-2.743-3.718a1 1 0 0 0-1.4-.211 1 1 0 0 0-.211 1.4z" class="cls-2" data-name="패스 29" transform="translate(-8.279)"/>
            <path id="패스_30" d="M-67.839 69.727a1 1 0 0 0-1.4.211l-2.743 3.718a1 1 0 0 0 .21 1.4 1 1 0 0 0 .593.195 1 1 0 0 0 .806-.406l2.743-3.719a1 1 0 0 0-.209-1.399z" class="cls-2" data-name="패스 30" transform="translate(-8.479)"/>
            <path id="패스_31" d="M-77 74a1 1 0 0 0 1-1v-4a1 1 0 0 0-1-1 1 1 0 0 0-1 1v4a1 1 0 0 0 1 1z" class="cls-2" data-name="패스 31" transform="translate(-8.372)"/>
        </g>
    </g>
</svg>
