<svg xmlns="http://www.w3.org/2000/svg" id="service_icon" width="114" height="114" viewBox="0 0 114 114">
    <defs>
        <style>
            .cls-1{fill:none}.cls-2{fill:#0068b4}
        </style>
    </defs>
    <path id="사각형_47" d="M0 0h114v114H0z" class="cls-1" data-name="사각형 47"/>
    <g id="그룹_39" data-name="그룹 39" transform="translate(30.01 28.717)">
        <path id="패스_28" d="M43.24 4.065a4.537 4.537 0 0 0-3.535-.049L18.78 12.45l3.726-5.15A4.71 4.71 0 0 0 21.278.805a4.588 4.588 0 0 0-6.368 1.174L4.4 13.9c-.286.365-6.951 9.055-3.328 18.261 2.14 5.443 4.33 8.989 6.892 11.159a10.08 10.08 0 0 0 6.674 2.53 13.6 13.6 0 0 0 5.066-1.074l8.579-3.458 6.437-2.594a4.7 4.7 0 0 0 2.58-6.071 4.652 4.652 0 0 0-1.689-2.137 4.694 4.694 0 0 0-.414-7.377 4.628 4.628 0 0 0 1.219-1.665 4.682 4.682 0 0 0-1.386-5.513l8.089-3.26a4.7 4.7 0 0 0 2.586-6.071 4.618 4.618 0 0 0-2.465-2.565zM23.162 28.291l8.58-3.459a2.258 2.258 0 0 1 .852-.166 2.3 2.3 0 0 1 2.147 1.472 2.351 2.351 0 0 1-1.291 3.037l-8.58 3.459a2.333 2.333 0 0 1-1.707-4.343zm10.705 8.262l-5.362 2.162-1.074.432a2.333 2.333 0 0 1-1.707-4.342l6.436-2.594a2.265 2.265 0 0 1 .853-.167 2.3 2.3 0 0 1 2.145 1.473 2.348 2.348 0 0 1-1.29 3.037zm-1.69-19.265a2.3 2.3 0 0 1 2.146 1.472 2.343 2.343 0 0 1-.023 1.79 2.825 2.825 0 0 1-1.266 1.512l-2.144 1.129-8.58 3.193a2.429 2.429 0 0 1-1.709-4.54l10.728-4.357a2.3 2.3 0 0 1 .848-.198zm10.091-6.9l-11.8 4.618-10.723 4.464a4.776 4.776 0 0 0-2.581 6.14 4.665 4.665 0 0 0 2.756 2.706 4.741 4.741 0 0 0-.194 3.858 4.626 4.626 0 0 0 2.756 2.68 4.716 4.716 0 0 0-.193 3.845 4.653 4.653 0 0 0 1.436 1.939L18.852 42.6C12 45.367 7.467 42.092 3.221 31.3.1 23.36 6.154 15.429 6.17 15.4L16.68 3.481l.095-.122a2.3 2.3 0 0 1 3.207-.62 2.358 2.358 0 0 1 .636 3.212l-8.375 11.584a1.177 1.177 0 0 0 .251 1.632 1.144 1.144 0 0 0 1.613-.254L16.213 16l24.348-9.813a2.276 2.276 0 0 1 1.766.025 2.186 2.186 0 0 1 1.232 1.214 2.273 2.273 0 0 1-1.291 2.968z" class="cls-2" data-name="패스 28" transform="matrix(.985 -.174 .174 .985 0 15.749)"/>
        <path id="패스_29" d="M-83.634 75.739a1.169 1.169 0 0 0 .942.474 1.171 1.171 0 0 0 .692-.227 1.168 1.168 0 0 0 .245-1.635l-3.205-4.344a1.166 1.166 0 0 0-1.634-.247 1.168 1.168 0 0 0-.247 1.634z" class="cls-2" data-name="패스 29" transform="translate(105.381 -67.742)"/>
        <path id="패스_30" d="M-67.108 69.76a1.166 1.166 0 0 0-1.634.247l-3.205 4.344a1.168 1.168 0 0 0 .245 1.635 1.171 1.171 0 0 0 .693.228 1.169 1.169 0 0 0 .942-.474l3.205-4.346a1.168 1.168 0 0 0-.246-1.634z" class="cls-2" data-name="패스 30" transform="translate(107.656 -67.742)"/>
        <path id="패스_31" d="M-76.832 75.011a1.169 1.169 0 0 0 1.168-1.168v-4.675A1.169 1.169 0 0 0-76.832 68 1.169 1.169 0 0 0-78 69.168v4.674a1.169 1.169 0 0 0 1.168 1.169z" class="cls-2" data-name="패스 31" transform="translate(106.8 -68)"/>
    </g>
</svg>
